<?xml version="1.0" encoding="utf-8"?>
<!-- Generator: Adobe Illustrator 16.0.0, SVG Export Plug-In . SVG Version: 6.00 Build 0)  -->
<!DOCTYPE svg PUBLIC "-//W3C//DTD SVG 1.1//EN" "http://www.w3.org/Graphics/SVG/1.1/DTD/svg11.dtd">
<svg version="1.1" id="Layer_1" xmlns="http://www.w3.org/2000/svg" xmlns:xlink="http://www.w3.org/1999/xlink" x="0px" y="0px"
	 width="367.358px" height="367.358px" viewBox="0 0 367.358 367.358" enable-background="new 0 0 367.358 367.358"
	 xml:space="preserve">
<g>
	<circle fill="#242118" cx="183.68" cy="183.679" r="183.679"/>
	
		<circle fill="#FFFFFF" stroke="#FFFFFF" stroke-width="6" stroke-linecap="round" stroke-linejoin="bevel" stroke-miterlimit="10" cx="183.679" cy="183.68" r="109.292"/>
	<g>
		
			<ellipse transform="matrix(0.4219 0.9067 -0.9067 0.4219 222.4545 -10.3334)" fill="#232018" cx="119.33" cy="169.268" rx="0.625" ry="1.375"/>
		
			<ellipse transform="matrix(-0.9999 0.0161 -0.0161 -0.9999 243.4293 341.6723)" fill="#232018" cx="120.341" cy="171.815" rx="1.063" ry="0.688"/>
		
			<ellipse transform="matrix(0.9999 -0.0165 0.0165 0.9999 -2.7942 1.9451)" fill="#232018" cx="116.44" cy="170.252" rx="0.562" ry="0.938"/>
		<line fill="#232018" x1="254.665" y1="126.902" x2="254.665" y2="126.902"/>
		<path fill="#232018" d="M205.164,103.211c-21.979,14.779-24.815,42.706-10.869,63.333c1.945,2.877,9.321,11.403,3.986,14.593
			c-7.195,4.302-18.019-13.087-20.034-17.791c-2.381-5.558-1.625-11.789-3.768-17.486c-0.83-2.21-2.569-4.052-2.67-6.38
			c-0.175-4.055-0.129-8.742-1.623-12.571c-1.625-4.164-3.404,3.683-3.306,5.15c-3.47-11.886-5.78,1.165-6.295,6.17
			c-0.603,5.846-9.565,8.279-13.199,13.462c-2.054,2.929-4.031,5.434-6.751,7.841c-5.934,5.255-3.425,7.096,2.284,11.784
			c3.634,2.982,7.943,0.043,10.583,5.843c1.632,3.588,3.015,11.687-2.631,12.594c-2.554,0.411-5.98-0.344-9.093-0.301
			c0.032-1.131-0.159-2.06-0.702-2.772c-0.807-1.057-1.965-1.592-3.573-1.592h-3.743c-0.482-2.387-1.297-4.239-2.549-5.024
			c1.955-2.782-0.088-5.5-0.088-5.5s7.766-14.627-9.559-11.348c-12.287,5.573-16.44,19.506-13.924,20.477
			c1.397,0.538,11.398-6.435,8.852-1.518c-5.879,7.595-1.225,24.897-1.225,24.897s14.303,2.771,16.623-0.268
			c0.638-0.835,1.254-2.998,1.71-5.756v0.341c2.095-0.354,4.413-1.326,5.989-3.951c2.733,1.434,5.918,2.528,6.884,3.054
			c7.073,3.852,24.616,16.745,20.181,27.15c-3.018,7.082-8.38,12.715-0.836,19.539c4.739,4.287,15.549,8.691,3.752,11.424
			c-1.519,0.352-18.987,3.477-11.174,5.67c8.229,2.311,17.563,2.102,26.035,2.387c6.308,0.213,13.209,0.975,19.489,0.059
			c15.512-2.27,0.352-6.719-0.892-14.467c-1.202-7.492,10.503-15.584,15.027-19.961c8.931-8.641,15.496-17.108,14.84-30.148
			c-0.593-11.743-4.889-23.741-10.877-33.798c-5.193-8.724-8.822-17.848-3.013-27.56c7.834-13.096,18.117,1.221,26.189,5.473
			c13.042,6.871,10.915-12.228,9.468-19.358C250.485,106.328,223.346,90.987,205.164,103.211z M112.548,175.441
			c-0.795,1.9,3.682-1.346,3.801,1.709s-5.479,3.979-6.078,3.398c-0.598-0.579-0.939-2.928,3.156-9.131
			c4.096-6.202,9.719-7.585,12.898-6.221c3.181,1.364,4.771,3.764,4.581,5.352c-0.188,1.587-1.179,2.495-3.048,3.587
			c-1.87,1.091-6.784,1.341-7.961,0.127c-1.176-1.213-1.528-3.513-2.816-2.903c-1.287,0.611,0.048,2.948,0.048,2.948
			S113.343,173.542,112.548,175.441z M119.261,205.001c1.301-0.621,3.223-1.447,4.236-1.464c0.992-0.016,3.359,0.984,5.059,1.768
			C125.034,208.857,121.153,206.563,119.261,205.001z M129.931,203.583c-1.889-0.692-4.702-1.546-6.539-1.288
			c-1.996,0.281-4.251,0.867-5.522,1.222c-0.628-1.144-2.233-4.612,0.111-6.613c2.101-1.534,2.704,4.957,3.681,3.441
			c0.976-1.517-2.424-9.588-0.67-9.991s2.897,8.58,4.522,8.554c1.624-0.026-2.658-9.833-0.177-10.998s1.821,12.222,3.674,10.817
			c1.854-1.405-2.067-15.232-0.25-15.623C134.372,181.898,131.206,204.981,129.931,203.583z M133.957,198.477
			c0.388-3.407,0.521-7.287,0.198-10.642h3.723c0.955,0,1.222,0.29,1.389,0.512c0.134,0.174,0.165,0.604,0.068,1.363
			c-1.33,0.292-2.524,0.864-3.455,1.937c-1.373,1.582-0.365,3.106,1.488,4.444 M156.058,157.686
			c-5.078,3.173-7.146-1.483-2.673-4.278C158.464,150.234,160.53,154.891,156.058,157.686z M245.58,134.676 M247.786,133.808
			L247.786,133.808 M246.19,134.436c-4.406,1.734-9.467-6.367-12.179-8.702c-5.612-4.831-8.319-7.693-20.251-2.933
			c-14.436,5.758-16.209,30.022-20.843,28.127c-6.018-2.461-1.096-19.703,0.207-23.495c4.565-13.275,15.146-23.351,29.768-23.266
			C247.782,105.762,252.114,132.104,246.19,134.436z"/>
	</g>
	<g>
		<path fill="#FFFFFF" d="M45.064,210.916l4.341-5.079l0.477,0.393c-0.227,0.443-0.309,0.777-0.246,1.003s0.543,0.773,1.439,1.644
			c1.851,1.806,3.201,3.383,4.05,4.733s1.559,3.041,2.131,5.071c1.141,4.048,1.119,7.639-0.067,10.773
			c-0.684,1.844-1.73,3.438-3.137,4.78c-1.606,1.549-3.549,2.645-5.831,3.288c-3.108,0.876-6.065,0.729-8.871-0.441
			c-4.216-1.761-7.104-5.404-8.662-10.932c-0.572-2.03-0.85-3.832-0.834-5.406c0.017-1.573,0.344-3.627,0.982-6.161
			c0.296-1.206,0.412-1.922,0.348-2.147s-0.308-0.469-0.732-0.728l0.2-0.584l6.365,2.062l-0.194,0.603
			c-0.207,0.031-0.378,0.066-0.516,0.104c-0.362,0.103-0.658,0.355-0.888,0.758c-0.23,0.403-0.457,1.069-0.68,1.998
			c-0.623,2.57-0.585,5.096,0.115,7.577c0.827,2.933,2.218,5.063,4.174,6.393c2.295,1.572,4.825,1.968,7.592,1.188
			c2.767-0.78,4.718-2.439,5.854-4.979c0.974-2.154,1.047-4.698,0.221-7.631c-0.7-2.481-1.989-4.654-3.867-6.52
			c-0.677-0.675-1.22-1.124-1.628-1.347c-0.408-0.224-0.793-0.284-1.157-0.182c-0.138,0.039-0.297,0.098-0.478,0.176L45.064,210.916
			z"/>
		<path fill="#FFFFFF" d="M40.875,197.103l7.294-0.388l-0.909-17.124c-0.021-0.39-0.127-0.685-0.32-0.883
			c-0.193-0.198-0.527-0.351-1.002-0.456l-0.033-0.623l6.885-0.365l0.033,0.623c-0.461,0.155-0.777,0.342-0.948,0.56
			s-0.246,0.521-0.225,0.911l1.283,24.185l-0.624,0.033c-0.155-0.461-0.341-0.776-0.559-0.948c-0.218-0.171-0.528-0.245-0.932-0.224
			l-22.527,1.195c-0.403,0.021-0.704,0.129-0.902,0.321c-0.198,0.193-0.35,0.527-0.456,1.002l-0.624,0.033l-1.259-23.717
			c-0.021-0.39-0.129-0.684-0.326-0.882s-0.529-0.351-0.997-0.456l-0.033-0.624l6.885-0.365l0.033,0.624
			c-0.455,0.154-0.77,0.342-0.944,0.559c-0.174,0.219-0.25,0.521-0.229,0.912l0.884,16.656l6.319-0.335l-0.574-10.806
			c-0.021-0.39-0.127-0.685-0.32-0.883c-0.193-0.198-0.527-0.35-1.002-0.455l-0.033-0.624l6.729-0.357l0.033,0.624
			c-0.448,0.154-0.761,0.341-0.938,0.559c-0.177,0.218-0.256,0.522-0.235,0.912L40.875,197.103z"/>
		<path fill="#FFFFFF" d="M41.984,167.114l8.731,1.429c0.386,0.063,0.7,0.019,0.942-0.133c0.243-0.151,0.458-0.443,0.648-0.874
			l0.617,0.101l-1.344,8.212l-0.617-0.102c-0.053-0.484-0.167-0.832-0.344-1.046c-0.176-0.213-0.457-0.352-0.842-0.415
			l-22.282-3.647c-0.398-0.065-0.715-0.024-0.95,0.122c-0.235,0.146-0.455,0.44-0.659,0.882l-0.617-0.101l2.694-16.46
			c0.328-2.004,0.704-3.576,1.128-4.714c0.424-1.138,0.996-2.096,1.717-2.875c0.834-0.905,1.865-1.516,3.09-1.83
			c1.183-0.294,2.404-0.339,3.663-0.133c4.292,0.703,6.414,3.498,6.366,8.385l8.103-3.918c1.419-0.691,2.346-1.216,2.781-1.574
			c0.435-0.357,0.721-0.835,0.858-1.433l0.617,0.101l-1.556,9.506l-0.617-0.101c0.004-0.671-0.173-1.036-0.533-1.095
			c-0.231-0.038-0.84,0.172-1.825,0.63l-8.621,4.06L41.984,167.114z M37.647,166.404l1.451-8.866
			c0.215-1.311,0.328-2.242,0.339-2.794s-0.068-1.073-0.239-1.563c-0.367-1.063-1.237-1.707-2.613-1.932
			c-1.375-0.225-2.405,0.108-3.092,0.998c-0.333,0.421-0.577,0.885-0.733,1.394c-0.156,0.509-0.343,1.432-0.562,2.768l-1.451,8.866
			L37.647,166.404z"/>
		<path fill="#FFFFFF" d="M54.012,132.513l-11.972-12.313c-0.508-0.522-0.932-0.85-1.271-0.983c-0.521-0.205-1.018,0.062-1.49,0.799
			l-0.582-0.229l3.341-8.493l0.582,0.229c-0.137,0.562-0.131,0.992,0.018,1.288c0.149,0.297,0.675,0.917,1.577,1.859l15.172,15.903
			c0.645,0.674,1.088,1.058,1.331,1.153c0.618,0.243,1.131,0.004,1.541-0.716l0.582,0.229l-3.363,8.547l-0.582-0.229
			c0.191-0.806-0.028-1.333-0.658-1.582c-0.23-0.09-0.811-0.108-1.741-0.055l-21.941,1.301c-1.303,0.076-2.11,0.171-2.421,0.287
			c-0.311,0.116-0.608,0.426-0.891,0.931l-0.582-0.229l3.467-8.813l0.582,0.229c-0.157,0.862,0.025,1.395,0.546,1.6
			c0.339,0.133,0.873,0.183,1.601,0.147L54.012,132.513z"/>
		<path fill="#FFFFFF" d="M61.096,109.183l6.083,4.045l9.495-14.279c0.216-0.326,0.307-0.625,0.27-0.9
			c-0.037-0.274-0.214-0.595-0.532-0.963l0.346-0.521l5.741,3.818l-0.346,0.52c-0.462-0.151-0.827-0.19-1.094-0.118
			c-0.268,0.072-0.509,0.271-0.725,0.597l-13.411,20.167l-0.521-0.346c0.151-0.462,0.19-0.827,0.118-1.094
			c-0.072-0.267-0.277-0.512-0.613-0.736l-18.784-12.491c-0.336-0.224-0.642-0.317-0.916-0.281
			c-0.274,0.037-0.596,0.214-0.963,0.532l-0.521-0.346l13.151-19.777c0.216-0.325,0.305-0.626,0.265-0.902s-0.215-0.597-0.527-0.96
			l0.346-0.521l5.741,3.817l-0.346,0.521c-0.458-0.148-0.821-0.186-1.091-0.115c-0.269,0.071-0.512,0.269-0.729,0.594l-9.236,13.889
			l5.27,3.504l5.991-9.01c0.216-0.325,0.307-0.625,0.27-0.899c-0.037-0.274-0.214-0.595-0.532-0.963l0.346-0.521l5.611,3.731
			l-0.346,0.521c-0.451-0.144-0.813-0.181-1.086-0.112s-0.517,0.266-0.733,0.591L61.096,109.183z"/>
		<path fill="#FFFFFF" d="M94.646,74.035l6.523,1.449l-0.124,0.606c-0.498,0.007-0.832,0.092-1,0.253
			c-0.169,0.162-0.428,0.843-0.776,2.042c-0.725,2.482-1.484,4.415-2.278,5.798c-0.794,1.383-1.953,2.804-3.477,4.262
			c-3.039,2.908-6.22,4.574-9.545,4.998c-1.949,0.261-3.847,0.086-5.694-0.525c-2.121-0.691-4.001-1.893-5.64-3.605
			c-2.232-2.333-3.491-5.013-3.774-8.04c-0.425-4.55,1.437-8.81,5.585-12.78c1.524-1.458,2.984-2.549,4.382-3.274
			c1.397-0.724,3.365-1.399,5.902-2.025c1.204-0.305,1.891-0.539,2.06-0.701c0.169-0.162,0.269-0.491,0.298-0.988l0.61-0.097
			l1.167,6.587l-0.623,0.112c-0.125-0.168-0.236-0.303-0.335-0.407c-0.26-0.271-0.622-0.414-1.086-0.428s-1.158,0.099-2.083,0.337
			c-2.562,0.657-4.774,1.876-6.637,3.659c-2.201,2.106-3.43,4.335-3.685,6.686c-0.311,2.764,0.528,5.184,2.515,7.261
			c1.988,2.077,4.369,3.021,7.144,2.832c2.36-0.152,4.64-1.281,6.842-3.388c1.862-1.783,3.176-3.941,3.941-6.475
			c0.278-0.915,0.42-1.604,0.425-2.07c0.006-0.465-0.122-0.833-0.383-1.106c-0.099-0.104-0.226-0.217-0.379-0.34L94.646,74.035z"/>
		<path fill="#FFFFFF" d="M104.851,63.841l3.773,6.255l14.684-8.858c0.334-0.202,0.544-0.434,0.628-0.698
			c0.084-0.263,0.061-0.629-0.069-1.098l0.535-0.323l3.561,5.903l-0.535,0.323c-0.354-0.334-0.667-0.525-0.939-0.574
			c-0.273-0.049-0.576,0.028-0.911,0.23l-20.738,12.51l-0.323-0.535c0.334-0.354,0.525-0.667,0.574-0.939
			c0.048-0.272-0.031-0.582-0.24-0.927L93.199,55.792c-0.208-0.345-0.445-0.56-0.708-0.645c-0.264-0.084-0.63-0.061-1.098,0.069
			l-0.323-0.535l20.336-12.268c0.334-0.202,0.543-0.436,0.625-0.703c0.082-0.267,0.06-0.631-0.067-1.094l0.535-0.323l3.561,5.903
			l-0.535,0.323c-0.351-0.329-0.663-0.519-0.937-0.57c-0.274-0.05-0.578,0.025-0.913,0.227l-14.282,8.615l3.269,5.419l9.265-5.589
			c0.334-0.202,0.544-0.434,0.628-0.698c0.084-0.263,0.061-0.629-0.069-1.098l0.535-0.323l3.48,5.77l-0.535,0.323
			c-0.347-0.323-0.659-0.511-0.934-0.565c-0.276-0.054-0.581,0.02-0.916,0.222L104.851,63.841z"/>
		<path fill="#FFFFFF" d="M131.838,50.745l2.823,8.385c0.125,0.371,0.311,0.627,0.558,0.771c0.247,0.144,0.605,0.198,1.075,0.164
			l0.199,0.592l-7.885,2.655l-0.2-0.592c0.403-0.273,0.657-0.537,0.764-0.793c0.106-0.255,0.097-0.568-0.027-0.938l-7.205-21.398
			c-0.128-0.382-0.313-0.644-0.552-0.783s-0.602-0.196-1.087-0.17l-0.2-0.592l15.808-5.322c1.925-0.648,3.489-1.051,4.693-1.209
			c1.204-0.158,2.319-0.101,3.345,0.172c1.191,0.314,2.212,0.938,3.063,1.875c0.814,0.908,1.425,1.966,1.832,3.175
			c1.388,4.122-0.089,7.305-4.431,9.549l7.255,5.327c1.275,0.931,2.172,1.504,2.692,1.721c0.519,0.217,1.075,0.246,1.668,0.087
			l0.199,0.593l-9.128,3.073l-0.2-0.592c0.595-0.31,0.834-0.638,0.718-0.984c-0.075-0.222-0.545-0.661-1.411-1.318l-7.623-5.718
			L131.838,50.745z M130.436,46.581l8.515-2.867c1.259-0.424,2.135-0.76,2.628-1.008c0.493-0.249,0.916-0.563,1.27-0.943
			c0.767-0.821,0.929-1.893,0.484-3.213c-0.445-1.32-1.221-2.076-2.329-2.266c-0.527-0.097-1.052-0.096-1.575,0.005
			c-0.522,0.101-1.426,0.367-2.709,0.798l-8.515,2.867L130.436,46.581z"/>
		<path fill="#FFFFFF" d="M158.156,52.418l-3.799-22.256c-0.066-0.385-0.207-0.665-0.421-0.84c-0.215-0.174-0.564-0.287-1.048-0.336
			l-0.105-0.616l8.202-1.4l0.105,0.616c-0.442,0.194-0.735,0.413-0.879,0.655c-0.144,0.242-0.182,0.556-0.117,0.941l3.8,22.256
			c0.068,0.398,0.213,0.687,0.436,0.867c0.222,0.18,0.568,0.29,1.037,0.328l0.105,0.616l-8.202,1.4l-0.105-0.616
			c0.44-0.207,0.732-0.429,0.877-0.665C158.186,53.134,158.224,52.816,158.156,52.418z M161.017,19.039l0.089,0.52
			c-0.499,0.098-0.847,0.342-1.044,0.733l-2.165,3.797c-0.062,0.103-0.083,0.212-0.063,0.328c0.035,0.206,0.188,0.285,0.457,0.239
			c0.012-0.002,0.038-0.007,0.077-0.013l0.089,0.52l-4.178,0.713l-0.089-0.52c0.308-0.053,0.519-0.135,0.632-0.247
			c0.113-0.112,0.203-0.319,0.271-0.621l0.735-3.355c0.031-0.124,0.041-0.225,0.027-0.302c-0.035-0.205-0.236-0.297-0.602-0.274
			l-0.088-0.52L161.017,19.039z"/>
		<path fill="#FFFFFF" d="M187.291,45.194l-12.116,0.197l-1.733,3.778c-0.239,0.525-0.356,0.937-0.351,1.236
			c0.009,0.573,0.451,0.963,1.325,1.17l0.01,0.625l-8.817,0.143l-0.01-0.625c0.519-0.113,0.913-0.301,1.183-0.566
			c0.269-0.265,0.573-0.777,0.913-1.539l9.471-20.645c0.302-0.656,0.45-1.179,0.443-1.57c-0.01-0.599-0.395-1.022-1.154-1.271
			l-0.01-0.625l9.452-0.153l0.01,0.625c-0.764,0.234-1.142,0.624-1.133,1.171c0.006,0.378,0.137,0.806,0.392,1.283l10.487,20.379
			c0.445,0.865,0.832,1.455,1.162,1.769c0.33,0.313,0.771,0.518,1.318,0.613l0.012,0.625l-9.814,0.159l-0.01-0.625
			c0.859-0.157,1.283-0.568,1.273-1.232c-0.004-0.273-0.141-0.674-0.41-1.204L187.291,45.194z M185.557,41.569l-4.476-9.425
			l-4.238,9.567L185.557,41.569z"/>
		<path fill="#FFFFFF" d="M236.136,36.15l-4.687,5.251l-0.448-0.442c0.046-0.123,0.079-0.222,0.1-0.297
			c0.113-0.428-0.13-0.984-0.729-1.668c-1.827-2.154-4.25-3.633-7.271-4.434c-1.335-0.354-2.555-0.502-3.661-0.446
			c-0.81,0.055-1.51,0.272-2.103,0.653s-0.968,0.867-1.124,1.458c-0.257,0.968,0.153,1.783,1.23,2.446
			c0.558,0.336,1.804,0.869,3.739,1.597l2.884,1.087c1.712,0.656,3.068,1.292,4.07,1.908s1.847,1.331,2.533,2.146
			c0.692,0.843,1.153,1.834,1.384,2.972s0.194,2.279-0.109,3.423c-0.48,1.812-1.492,3.266-3.036,4.364
			c-1.397,1.002-3.292,1.517-5.683,1.542c-1.785,0.024-3.628-0.215-5.528-0.719c-3.411-0.905-6.561-2.615-9.449-5.133
			c-0.618-0.514-0.996-0.79-1.135-0.826c-0.164-0.043-0.458,0.027-0.884,0.21l-0.473-0.428l4.471-5.583l0.478,0.41
			c-0.029,0.113-0.052,0.195-0.064,0.245c-0.15,0.566-0.019,1.161,0.396,1.782c0.625,0.947,1.723,1.912,3.295,2.894
			c1.571,0.982,3.124,1.677,4.66,2.084c1.674,0.444,3.177,0.541,4.51,0.289c0.738-0.141,1.371-0.42,1.899-0.838
			c0.528-0.417,0.868-0.909,1.018-1.475c0.227-0.854-0.071-1.585-0.894-2.193c-0.575-0.421-1.81-0.998-3.704-1.728l-2.827-1.073
			c-1.897-0.719-3.225-1.276-3.981-1.672c-0.758-0.396-1.485-0.903-2.184-1.52c-0.995-0.871-1.67-1.959-2.023-3.267
			c-0.321-1.177-0.306-2.427,0.045-3.75c0.577-2.179,1.804-3.782,3.679-4.808c2.462-1.356,5.655-1.514,9.582-0.472
			c1.648,0.437,3.14,1.012,4.474,1.724c1.333,0.712,2.944,1.799,4.833,3.26c0.653,0.484,1.062,0.748,1.225,0.792
			c0.265,0.07,0.611,0.006,1.041-0.191L236.136,36.15z"/>
		<path fill="#FFFFFF" d="M250.636,62.383l-10.834-5.425l-3.283,2.55c-0.455,0.355-0.749,0.667-0.883,0.934
			c-0.257,0.512-0.046,1.063,0.634,1.65l-0.28,0.559l-7.885-3.949l0.28-0.559c0.512,0.14,0.948,0.155,1.31,0.044
			s0.868-0.424,1.521-0.942l17.94-13.93c0.571-0.442,0.944-0.838,1.119-1.188c0.268-0.535,0.123-1.089-0.436-1.66l0.279-0.559
			l8.453,4.233l-0.28,0.559c-0.786-0.146-1.302,0.025-1.546,0.515c-0.169,0.338-0.251,0.777-0.245,1.319l-0.119,22.919
			c-0.006,0.973,0.064,1.674,0.213,2.105c0.148,0.431,0.443,0.816,0.886,1.154l-0.279,0.559l-8.776-4.394l0.28-0.559
			c0.835,0.258,1.401,0.09,1.698-0.504c0.122-0.245,0.187-0.664,0.193-1.258L250.636,62.383z M250.774,58.368l0.386-10.428
			l-8.18,6.525L250.774,58.368z"/>
		<path fill="#FFFFFF" d="M273.478,63.38L263.06,75.799c-0.26,0.31-0.387,0.603-0.38,0.879c0.005,0.276,0.146,0.616,0.421,1.017
			l-0.401,0.479l-6-5.033l0.401-0.479c0.442,0.202,0.801,0.281,1.074,0.239s0.54-0.218,0.8-0.528l14.511-17.298
			c0.251-0.299,0.373-0.587,0.367-0.864c-0.006-0.276-0.146-0.615-0.422-1.017l0.402-0.479l6.942,5.824l-0.401,0.479
			c-0.521-0.25-0.928-0.2-1.221,0.149c-0.201,0.239-0.283,0.621-0.246,1.145l1.439,21.168l10.167-12.121
			c0.251-0.299,0.373-0.587,0.368-0.864c-0.007-0.277-0.146-0.616-0.422-1.017L290.861,67l6,5.034l-0.401,0.479
			c-0.442-0.201-0.801-0.281-1.074-0.238s-0.536,0.213-0.787,0.513l-14.511,17.298c-0.259,0.309-0.386,0.602-0.38,0.879
			s0.146,0.616,0.422,1.017l-0.401,0.479l-6.435-5.397l0.401-0.479c0.494,0.262,0.884,0.223,1.168-0.116
			c0.168-0.199,0.216-0.753,0.146-1.663L273.478,63.38z"/>
		<path fill="#FFFFFF" d="M307.085,91.7l-15.969,12.396c-0.318,0.248-0.505,0.507-0.557,0.779c-0.054,0.271,0.013,0.633,0.197,1.083
			l-0.494,0.383l-5.102-6.572l0.494-0.383c0.39,0.291,0.723,0.443,1,0.46c0.275,0.016,0.573-0.099,0.893-0.347l15.969-12.396
			l-5.078-6.542c-0.24-0.309-0.494-0.49-0.763-0.545s-0.632,0.012-1.087,0.201l-0.384-0.494l5.446-4.228l0.384,0.494
			c-0.287,0.404-0.439,0.741-0.458,1.01c-0.018,0.27,0.093,0.559,0.332,0.867l13.713,17.666c0.248,0.319,0.506,0.505,0.776,0.56
			c0.269,0.054,0.631-0.012,1.086-0.2l0.383,0.494l-5.446,4.228l-0.383-0.494c0.296-0.395,0.451-0.729,0.464-1.003
			c0.014-0.274-0.104-0.571-0.351-0.889L307.085,91.7z"/>
		<path fill="#FFFFFF" d="M309.348,125.323l-5.557-10.768l-4.155,0.125c-0.576,0.019-0.998,0.097-1.264,0.234
			c-0.51,0.263-0.663,0.832-0.46,1.707l-0.556,0.287l-4.044-7.836l0.556-0.287c0.331,0.415,0.675,0.685,1.032,0.808
			c0.356,0.124,0.951,0.168,1.784,0.134l22.703-0.683c0.722-0.021,1.256-0.121,1.604-0.3c0.531-0.274,0.74-0.808,0.626-1.598
			l0.555-0.287l4.335,8.4l-0.555,0.287c-0.55-0.581-1.066-0.747-1.553-0.496c-0.336,0.173-0.661,0.48-0.976,0.921l-13.602,18.448
			c-0.578,0.782-0.935,1.391-1.068,1.826c-0.135,0.436-0.122,0.92,0.036,1.454l-0.556,0.287l-4.501-8.722l0.556-0.287
			c0.522,0.7,1.079,0.898,1.669,0.594c0.243-0.125,0.542-0.426,0.897-0.902L309.348,125.323z M311.825,122.16l6.457-8.197
			l-10.454,0.451L311.825,122.16z"/>
		<path fill="#FFFFFF" d="M320.732,163.422l-2.248-11.907l-4.018-1.068c-0.558-0.146-0.983-0.192-1.277-0.136
			c-0.563,0.106-0.873,0.607-0.929,1.504l-0.614,0.116l-1.636-8.666l0.614-0.116c0.198,0.492,0.451,0.849,0.758,1.069
			c0.307,0.22,0.864,0.433,1.671,0.639l21.952,5.834c0.697,0.187,1.238,0.243,1.622,0.171c0.588-0.111,0.94-0.562,1.057-1.352
			l0.614-0.116l1.753,9.289l-0.614,0.116c-0.36-0.714-0.809-1.02-1.346-0.919c-0.371,0.07-0.771,0.271-1.198,0.604l-18.307,13.791
			c-0.777,0.584-1.293,1.065-1.546,1.445c-0.253,0.379-0.38,0.847-0.381,1.403l-0.614,0.116l-1.82-9.644l0.614-0.116
			c0.301,0.82,0.777,1.169,1.43,1.046c0.269-0.051,0.642-0.253,1.117-0.608L320.732,163.422z M324.011,161.099l8.53-6.01
			l-10.147-2.555L324.011,161.099z"/>
		<path fill="#FFFFFF" d="M333.779,182.191l-16.194-0.74c-0.403-0.02-0.713,0.058-0.929,0.23c-0.217,0.172-0.401,0.49-0.552,0.953
			l-0.625-0.029l0.358-7.824l0.624,0.029c0.108,0.475,0.263,0.807,0.463,0.998c0.199,0.191,0.501,0.297,0.904,0.315l22.555,1.032
			c0.39,0.018,0.693-0.061,0.91-0.232c0.216-0.174,0.4-0.49,0.552-0.953L342.47,176l-0.414,9.053l-0.624-0.028
			c-0.118-0.566-0.404-0.859-0.859-0.88c-0.313-0.015-0.665,0.151-1.059,0.498l-15.949,13.993l15.804,0.724
			c0.391,0.018,0.693-0.061,0.91-0.232c0.216-0.173,0.4-0.49,0.552-0.952l0.624,0.028l-0.357,7.824l-0.624-0.029
			c-0.109-0.474-0.264-0.807-0.463-0.998c-0.2-0.192-0.495-0.297-0.885-0.314l-22.555-1.031c-0.403-0.019-0.714,0.058-0.93,0.23
			c-0.217,0.173-0.4,0.49-0.552,0.953l-0.625-0.029l0.384-8.39l0.625,0.029c0.092,0.551,0.358,0.837,0.801,0.857
			c0.261,0.012,0.73-0.286,1.41-0.894L333.779,182.191z"/>
		<path fill="#FFFFFF" d="M315.013,227.85l3.385-11.634l-3.1-2.771c-0.431-0.383-0.79-0.616-1.077-0.699
			c-0.551-0.16-1.054,0.146-1.509,0.921l-0.601-0.175l2.464-8.468l0.6,0.175c-0.045,0.529,0.019,0.962,0.192,1.297
			s0.574,0.777,1.201,1.326l16.934,15.138c0.537,0.482,0.994,0.777,1.369,0.887c0.575,0.167,1.093-0.075,1.554-0.728l0.601,0.175
			l-2.641,9.076l-0.601-0.175c0.002-0.799-0.259-1.275-0.784-1.428c-0.363-0.105-0.81-0.107-1.342-0.004l-22.565,4.012
			c-0.958,0.169-1.636,0.365-2.033,0.588c-0.397,0.224-0.722,0.584-0.975,1.08l-0.601-0.175l2.742-9.424l0.601,0.175
			c-0.104,0.867,0.163,1.394,0.801,1.579c0.263,0.077,0.687,0.064,1.272-0.036L315.013,227.85z M318.987,227.263l10.326-1.498
			l-7.892-6.871L318.987,227.263z"/>
	</g>
	<g>
		<path fill="#FFFFFF" d="M123.122,327.182c-0.87,0.371-1.651,0.571-2.343,0.601c-0.692,0.028-1.37-0.1-2.035-0.383
			c-1.347-0.575-2.284-1.641-2.808-3.197c-0.525-1.557-0.41-3.22,0.345-4.989c0.755-1.77,2.003-3.15,3.744-4.144
			c1.74-0.993,3.486-1.116,5.238-0.369c1.087,0.464,1.837,1.193,2.252,2.188l0.972-2.276c0.602-1.41,0.938-2.291,1.009-2.644
			c0.071-0.352,0.059-0.617-0.035-0.795c-0.094-0.179-0.249-0.313-0.464-0.405c-0.233-0.1-0.574-0.16-1.021-0.182L128,310.04
			l4.322,0.061l0.606,0.259l-6.09,14.268c-0.617,1.446-0.96,2.343-1.029,2.69s-0.056,0.616,0.039,0.805
			c0.094,0.189,0.24,0.326,0.438,0.41c0.243,0.104,0.598,0.166,1.068,0.186l-0.053,0.534l-4.314-0.041l-0.62-0.265L123.122,327.182z
			 M123.524,326.238l2.714-6.359c0.207-0.634,0.283-1.26,0.228-1.878c-0.055-0.617-0.25-1.149-0.585-1.595
			c-0.335-0.446-0.714-0.759-1.136-0.939c-0.791-0.337-1.647-0.283-2.569,0.162c-1.216,0.585-2.208,1.775-2.974,3.572
			c-0.774,1.814-0.973,3.373-0.594,4.676s1.053,2.161,2.022,2.575C121.447,326.801,122.412,326.729,123.524,326.238z"/>
		<path fill="#FFFFFF" d="M133.478,323.755c-0.614,1.896-0.627,3.531-0.041,4.906c0.586,1.376,1.508,2.264,2.764,2.664
			c0.837,0.267,1.639,0.269,2.404,0.005s1.536-0.887,2.31-1.87l0.344,0.417c-0.602,1.213-1.539,2.192-2.812,2.94
			c-1.273,0.747-2.617,0.896-4.031,0.445c-1.536-0.489-2.66-1.506-3.372-3.05c-0.712-1.543-0.747-3.325-0.104-5.345
			c0.696-2.187,1.8-3.713,3.311-4.579c1.511-0.867,3.113-1.03,4.807-0.491c1.433,0.456,2.459,1.304,3.08,2.541
			c0.621,1.238,0.679,2.648,0.175,4.23L133.478,323.755z M133.736,322.945l5.918,1.885c0.214-0.833,0.3-1.441,0.258-1.824
			c-0.067-0.595-0.283-1.114-0.649-1.56c-0.366-0.444-0.8-0.746-1.302-0.906c-0.772-0.246-1.559-0.166-2.359,0.24
			C134.801,321.187,134.179,321.908,133.736,322.945z"/>
		<path fill="#FFFFFF" d="M154.076,323.716l-1.017,4.456l-0.471-0.107c-0.043-1.482-0.29-2.54-0.741-3.174
			c-0.452-0.634-1.115-1.051-1.991-1.251c-0.667-0.152-1.245-0.099-1.734,0.16s-0.783,0.603-0.881,1.031
			c-0.122,0.533-0.074,1.025,0.145,1.476c0.206,0.457,0.711,1.009,1.516,1.652l1.854,1.49c1.717,1.384,2.4,2.847,2.048,4.389
			c-0.271,1.19-0.94,2.047-2.006,2.57c-1.066,0.522-2.156,0.657-3.27,0.403c-0.8-0.183-1.681-0.534-2.644-1.055
			c-0.292-0.167-0.539-0.273-0.739-0.318c-0.219-0.05-0.419,0.034-0.599,0.254l-0.472-0.107l1.066-4.67l0.471,0.107
			c-0.038,1.394,0.243,2.515,0.84,3.362s1.363,1.377,2.296,1.59c0.657,0.15,1.237,0.08,1.739-0.211
			c0.502-0.292,0.815-0.708,0.939-1.251c0.15-0.657,0.045-1.262-0.314-1.814c-0.36-0.553-1.152-1.33-2.376-2.33
			c-1.224-1.001-1.987-1.826-2.29-2.476c-0.305-0.641-0.363-1.375-0.173-2.203c0.245-1.076,0.819-1.892,1.723-2.447
			c0.902-0.555,1.94-0.699,3.111-0.432c0.514,0.117,1.113,0.369,1.796,0.755c0.453,0.254,0.76,0.399,0.922,0.436
			c0.152,0.035,0.279,0.029,0.38-0.018c0.101-0.048,0.234-0.172,0.401-0.375L154.076,323.716z"/>
		<path fill="#FFFFFF" d="M164.645,337.827c-0.741,0.589-1.44,0.989-2.1,1.2c-0.66,0.211-1.348,0.268-2.063,0.17
			c-1.452-0.197-2.637-0.977-3.555-2.338c-0.919-1.362-1.249-2.996-0.989-4.902c0.259-1.906,1.096-3.569,2.511-4.988
			s3.066-2,4.953-1.744c1.171,0.159,2.088,0.664,2.751,1.513l0.333-2.453c0.207-1.519,0.297-2.458,0.272-2.816
			c-0.025-0.357-0.107-0.61-0.245-0.757c-0.138-0.147-0.323-0.236-0.555-0.268c-0.252-0.034-0.596-0.003-1.033,0.096l-0.12-0.534
			l4.184-1.087l0.653,0.089l-2.09,15.372c-0.211,1.558-0.305,2.514-0.279,2.866c0.026,0.354,0.109,0.609,0.251,0.767
			c0.141,0.157,0.318,0.25,0.531,0.278c0.261,0.036,0.621,0.001,1.079-0.104l0.09,0.53l-4.171,1.104l-0.668-0.091L164.645,337.827z
			 M164.783,336.811l0.931-6.851c0.031-0.666-0.061-1.29-0.278-1.871s-0.546-1.043-0.987-1.384s-0.89-0.542-1.344-0.604
			c-0.852-0.116-1.663,0.163-2.435,0.837c-1.017,0.887-1.657,2.298-1.92,4.232c-0.266,1.955-0.044,3.511,0.667,4.666
			c0.71,1.156,1.588,1.806,2.633,1.947C162.929,337.904,163.841,337.579,164.783,336.811z"/>
		<path fill="#FFFFFF" d="M173.718,331.777c-0.092,1.99,0.327,3.571,1.255,4.744c0.929,1.172,2.052,1.785,3.369,1.84
			c0.878,0.036,1.652-0.174,2.321-0.63c0.668-0.456,1.247-1.261,1.734-2.413l0.441,0.312c-0.26,1.328-0.906,2.521-1.937,3.578
			c-1.031,1.057-2.288,1.555-3.771,1.493c-1.61-0.066-2.962-0.751-4.057-2.052c-1.095-1.302-1.598-3.011-1.511-5.128
			c0.095-2.293,0.756-4.057,1.985-5.291s2.731-1.815,4.507-1.742c1.502,0.063,2.716,0.609,3.641,1.64
			c0.925,1.03,1.354,2.374,1.285,4.033L173.718,331.777z M173.753,330.929l6.206,0.257c-0.013-0.86-0.091-1.47-0.232-1.827
			c-0.222-0.557-0.567-1.001-1.037-1.333c-0.47-0.333-0.969-0.51-1.496-0.531c-0.81-0.033-1.547,0.251-2.212,0.854
			C174.316,328.951,173.907,329.812,173.753,330.929z"/>
		<path fill="#FFFFFF" d="M194.456,322.166l4.573-2.832l0.48-0.049l1.685,16.688c0.112,1.107,0.228,1.793,0.348,2.056
			c0.119,0.263,0.333,0.452,0.639,0.568c0.307,0.116,0.907,0.139,1.804,0.068l0.054,0.539l-7.433,0.75l-0.055-0.539
			c0.931-0.113,1.525-0.255,1.783-0.423s0.428-0.377,0.511-0.626s0.064-0.966-0.055-2.151l-1.077-10.668
			c-0.146-1.438-0.287-2.356-0.426-2.755c-0.1-0.304-0.246-0.52-0.44-0.647c-0.194-0.127-0.418-0.179-0.671-0.153
			c-0.359,0.037-0.845,0.238-1.455,0.604L194.456,322.166z"/>
		<path fill="#FFFFFF" d="M210.572,338.732l-0.107-0.531c1.239-0.272,2.339-0.797,3.297-1.575c0.958-0.777,1.795-1.967,2.511-3.567
			s1.1-3.278,1.151-5.033c-1.306,1.272-2.566,2.032-3.782,2.279c-1.368,0.278-2.648-0.012-3.839-0.871
			c-1.191-0.858-1.965-2.164-2.321-3.915c-0.347-1.703-0.167-3.319,0.538-4.848c0.849-1.857,2.22-2.979,4.114-3.363
			c1.599-0.325,3.102,0.057,4.509,1.146c1.729,1.353,2.839,3.229,3.328,5.632c0.439,2.162,0.318,4.287-0.363,6.374
			s-1.844,3.94-3.488,5.561c-1.334,1.327-2.91,2.177-4.729,2.546L210.572,338.732z M217.438,326.917
			c-0.081-1.279-0.197-2.292-0.35-3.038c-0.188-0.929-0.55-1.899-1.085-2.911c-0.535-1.013-1.15-1.747-1.846-2.203
			c-0.696-0.457-1.412-0.61-2.149-0.46c-0.852,0.173-1.521,0.708-2.006,1.604c-0.485,0.896-0.574,2.101-0.267,3.612
			c0.411,2.02,1.158,3.512,2.241,4.478c0.789,0.696,1.639,0.952,2.548,0.767c0.44-0.089,0.94-0.301,1.5-0.634
			C216.585,327.798,217.056,327.394,217.438,326.917z"/>
		<path fill="#FFFFFF" d="M227.409,324.076c-1.885-0.765-3.159-1.452-3.824-2.063c-0.666-0.611-1.123-1.317-1.372-2.12
			c-0.383-1.23-0.237-2.439,0.438-3.626c0.674-1.186,1.799-2.023,3.375-2.514c1.529-0.476,2.89-0.442,4.08,0.098
			s1.951,1.342,2.281,2.404c0.221,0.709,0.193,1.51-0.081,2.403s-1.055,2.087-2.339,3.58c2.035,0.758,3.432,1.418,4.189,1.98
			c1.005,0.73,1.671,1.623,1.998,2.677c0.415,1.334,0.261,2.632-0.462,3.895c-0.722,1.263-1.908,2.149-3.56,2.663
			c-1.8,0.56-3.378,0.432-4.736-0.384c-1.083-0.655-1.791-1.52-2.124-2.592c-0.262-0.84-0.238-1.76,0.069-2.76
			C225.649,326.717,226.339,325.503,227.409,324.076z M229.14,321.896c0.807-1.354,1.268-2.37,1.385-3.046
			c0.117-0.675,0.062-1.381-0.167-2.118c-0.305-0.979-0.818-1.66-1.541-2.045c-0.723-0.383-1.56-0.428-2.511-0.132
			s-1.64,0.812-2.065,1.547c-0.426,0.736-0.524,1.472-0.295,2.209c0.15,0.484,0.425,0.932,0.822,1.339
			c0.398,0.408,0.894,0.761,1.487,1.057L229.14,321.896z M228.231,324.403c-0.571,0.894-0.924,1.783-1.058,2.668
			c-0.134,0.886-0.062,1.775,0.217,2.671c0.374,1.203,1.002,2.063,1.884,2.582s1.831,0.62,2.848,0.304
			c1.008-0.313,1.726-0.848,2.155-1.605c0.429-0.757,0.518-1.541,0.266-2.353c-0.209-0.672-0.573-1.218-1.093-1.64
			C232.481,326.248,230.741,325.372,228.231,324.403z"/>
		<path fill="#FFFFFF" d="M244.62,307.07l-0.077,2.738l-5.5,2.339l-0.156,2.964c2.53-0.662,4.794-0.579,6.79,0.248
			c1.715,0.714,2.925,1.898,3.628,3.552c0.408,0.961,0.592,1.935,0.548,2.918c-0.043,0.984-0.238,1.89-0.587,2.717
			c-0.349,0.828-0.813,1.571-1.392,2.231c-0.823,0.934-1.779,1.632-2.866,2.095c-1.097,0.466-1.974,0.618-2.631,0.457
			c-0.657-0.16-1.081-0.466-1.272-0.915c-0.106-0.251-0.099-0.518,0.026-0.799c0.124-0.281,0.344-0.488,0.658-0.622
			c0.234-0.1,0.454-0.15,0.659-0.153c0.206-0.003,0.583,0.055,1.132,0.172c0.873,0.181,1.655,0.124,2.347-0.171
			c1.052-0.446,1.807-1.237,2.264-2.371c0.457-1.133,0.443-2.271-0.042-3.412c-0.471-1.105-1.264-1.985-2.381-2.641
			s-2.411-0.978-3.882-0.968c-1.151,0.012-2.585,0.346-4.302,1.001l0.484-8.595L244.62,307.07z"/>
	</g>
	<polygon fill="#FFFFFF" points="68.039,276.692 63.75,273.255 58.488,274.839 60.432,269.698 57.299,265.183 62.789,265.442 
		66.116,261.067 67.565,266.369 72.753,268.181 68.159,271.198 	"/>
	<polygon fill="#FFFFFF" points="299.014,276.692 303.303,273.255 308.564,274.839 306.621,269.698 309.754,265.183 
		304.264,265.442 300.938,261.067 299.488,266.369 294.299,268.181 298.894,271.198 	"/>
</g>
</svg>
