<?xml version="1.0" standalone="no"?>
<!DOCTYPE svg PUBLIC "-//W3C//DTD SVG 20010904//EN"
 "http://www.w3.org/TR/2001/REC-SVG-20010904/DTD/svg10.dtd">
<svg version="1.0" xmlns="http://www.w3.org/2000/svg"
 width="300.000000pt" height="300.000000pt" viewBox="0 0 300.000000 300.000000"
 preserveAspectRatio="xMidYMid meet">
<metadata>
Created by potrace 1.14, written by Peter Selinger 2001-2017
</metadata>
<g transform="translate(0.000000,300.000000) scale(0.100000,-0.100000)"
fill="#000000" stroke="none">
<path d="M0 1500 l0 -1500 1500 0 1500 0 0 1500 0 1500 -1500 0 -1500 0 0
-1500z m1648 1106 c86 -36 213 -87 282 -116 69 -28 160 -65 203 -82 43 -17 82
-39 87 -48 24 -45 42 -247 37 -410 -9 -276 -70 -483 -200 -675 -132 -195 -383
-349 -567 -349 -122 1 -301 77 -429 184 -254 212 -388 670 -342 1174 l6 69
165 69 c91 38 235 99 320 135 85 36 178 75 205 88 28 13 56 24 63 24 7 1 83
-28 170 -63z m-150 -1803 c19 -4 22 -12 22 -55 0 -48 -1 -50 -22 -43 -13 4
-52 9 -88 12 -73 6 -94 -6 -88 -49 2 -17 24 -34 87 -68 104 -55 126 -83 126
-154 -1 -61 -23 -97 -74 -122 -46 -22 -147 -29 -210 -14 l-51 12 0 58 0 57 47
-23 c57 -29 122 -31 154 -5 38 30 15 64 -74 106 -96 45 -119 70 -125 136 -8
87 34 139 130 159 41 8 117 5 166 -7z m885 1 c13 -4 17 -17 17 -61 0 -49 -2
-54 -17 -48 -57 25 -111 28 -157 11 -60 -23 -88 -63 -94 -133 -11 -133 93
-206 227 -158 l41 14 0 -53 0 -54 -44 -11 c-63 -16 -145 -14 -199 5 -56 19
-118 84 -135 142 -39 128 15 274 121 329 56 29 167 37 240 17z m-1601 -164
c31 -91 58 -168 60 -172 2 -5 30 71 63 167 l60 176 80 -3 80 -3 0 -245 0 -245
-57 -3 -58 -3 -1 178 0 178 -61 -178 -61 -178 -50 3 c-44 3 -52 6 -58 28 -4
14 -32 97 -63 185 l-56 160 0 -187 0 -188 -50 0 -50 0 0 250 0 251 83 -3 82
-3 57 -165z m1116 140 c74 -42 84 -147 19 -206 -18 -17 -40 -34 -48 -37 -11
-5 -11 -8 3 -17 17 -10 123 -165 135 -196 5 -12 -6 -14 -58 -12 l-64 3 -49 82
c-50 82 -81 111 -110 100 -13 -5 -16 -24 -16 -97 l0 -90 -55 0 -55 0 0 251 0
252 128 -5 c111 -4 134 -8 170 -28z"/>
<path d="M1385 2436 c-55 -23 -190 -80 -299 -126 l-199 -84 6 -181 c11 -367
88 -598 256 -766 120 -120 284 -192 388 -169 189 43 379 223 462 440 64 164
76 235 76 450 0 107 -3 206 -7 220 -8 25 -84 59 -543 242 l-41 16 -99 -42z
m184 -136 c54 -15 109 -59 131 -104 16 -33 20 -62 20 -134 l0 -92 -50 0 -50 0
0 84 c0 98 -17 129 -79 146 -52 14 -94 3 -128 -32 -25 -27 -28 -37 -32 -114
l-3 -84 -49 0 -49 0 0 73 c0 87 14 141 46 185 51 66 155 97 243 72z m221 -640
l0 -260 -285 0 -285 0 0 40 0 40 245 0 245 0 0 180 0 180 -242 2 -243 3 -3 38
-3 37 285 0 286 0 0 -260z m-361 142 c6 -10 7 -29 4 -41 -5 -21 -9 -21 -132
-19 -123 3 -126 4 -129 26 -7 45 12 52 134 52 100 0 114 -2 123 -18z m1 -137
c0 -21 -6 -35 -16 -39 -20 -8 -208 -8 -228 0 -18 7 -22 54 -7 70 6 5 63 8 130
6 l121 -3 0 -34z m-5 -105 l0 -35 -125 0 -125 0 -3 29 c-2 16 2 33 10 37 7 5
65 8 128 7 l115 -3 0 -35z"/>
<path d="M1710 656 c0 -72 7 -78 70 -65 40 9 60 32 60 70 0 37 -33 59 -87 59
l-43 0 0 -64z"/>
</g>
</svg>
